<svg width="20" height="14" viewBox="0 0 20 14" fill="none" xmlns="http://www.w3.org/2000/svg">
<path d="M10 0C14.19 0 16.8001 0.16043 17.8301 0.44043C18.7299 0.690441 19.3096 1.27009 19.5596 2.16992C19.6896 2.63992 19.7798 3.27031 19.8398 4.07031C19.9098 4.87019 19.9404 5.56023 19.9404 6.16016L20 7C20 9.19 19.8396 10.8001 19.5596 11.8301C19.3096 12.7299 18.7299 13.3096 17.8301 13.5596C17.3601 13.6896 16.4997 13.7798 15.1797 13.8398C13.8798 13.9098 12.6898 13.9404 11.5898 13.9404L10 14C5.81 14 3.19992 13.8396 2.16992 13.5596C1.27009 13.3096 0.690441 12.7299 0.44043 11.8301C0.31043 11.3601 0.220156 10.7297 0.160156 9.92969C0.0901748 9.12981 0.0595703 8.43977 0.0595703 7.83984L0 7C0 4.81 0.16043 3.19992 0.44043 2.16992C0.690441 1.27009 1.27009 0.690441 2.16992 0.44043C2.63992 0.31043 3.50031 0.220156 4.82031 0.160156C6.12019 0.0901679 7.31024 0.0595703 8.41016 0.0595703L10 0ZM8 10L13.1904 7L8 4V10Z" fill="#828282"/>
</svg>
