<svg width="20" height="20" viewBox="0 0 20 20" fill="none" xmlns="http://www.w3.org/2000/svg">
<path d="M10 0.04C15.4998 0.04 19.9997 4.52975 20 10.0595C20.0053 12.4451 19.158 14.7548 17.6104 16.5703C16.0626 18.3857 13.916 19.5878 11.5596 19.9599V12.9599H13.8896L14.3398 10.0595H11.5596V8.17965C11.5597 7.38977 11.9506 6.62008 13.1904 6.62008H14.4502V4.15035C14.4502 4.15035 13.3097 3.95992 12.2197 3.95992C9.93001 3.96003 8.4406 5.33994 8.44043 7.84957V10.0595H5.90039V12.9599H8.44043V19.9599C3.66043 19.2099 0 15.0595 0 10.0595C0.000254539 4.52975 4.50016 0.04 10 0.04Z" fill="#828282"/>
</svg>
